<?xml version="1.0" encoding="UTF-8"?>
<svg width="600" height="400" viewBox="0 0 600 400" fill="none" xmlns="http://www.w3.org/2000/svg" role="img" aria-labelledby="title2 desc2">
  <title id="title2">Placeholder Product 2</title>
  <desc id="desc2">Abstract milling / machining block with drill heads</desc>
  <rect width="600" height="400" fill="#0f172a" />
  <rect x="80" y="70" width="240" height="260" rx="18" fill="#1e293b" stroke="#38bdf8" stroke-width="6" />
  <rect x="110" y="108" width="180" height="80" rx="10" fill="#0f172a" stroke="#38bdf8" stroke-width="5" />
  <rect x="110" y="212" width="180" height="70" rx="10" fill="#0f172a" stroke="#38bdf8" stroke-width="5" />
  <g stroke="#fbbf24" stroke-width="6" stroke-linecap="round" stroke-linejoin="round">
    <path d="M400 70H520V330H400z" fill="#1e293b" />
    <circle cx="460" cy="140" r="40" fill="#0f172a" />
    <circle cx="460" cy="240" r="40" fill="#0f172a" />
    <circle cx="460" cy="140" r="14" fill="#1e293b" />
    <circle cx="460" cy="240" r="14" fill="#1e293b" />
    <path d="M420 110L500 110M420 210L500 210" stroke="#34d399" stroke-width="6" />
  </g>
  <g stroke="#34d399" stroke-width="5" stroke-linecap="round">
    <path d="M140 148H260M140 252H260" />
    <circle cx="155" cy="148" r="6" fill="#34d399" />
    <circle cx="175" cy="148" r="6" fill="#34d399" />
    <circle cx="195" cy="148" r="6" fill="#34d399" />
    <circle cx="215" cy="148" r="6" fill="#34d399" />
    <circle cx="235" cy="148" r="6" fill="#34d399" />
    <circle cx="155" cy="252" r="6" fill="#34d399" />
    <circle cx="175" cy="252" r="6" fill="#34d399" />
    <circle cx="195" cy="252" r="6" fill="#34d399" />
    <circle cx="215" cy="252" r="6" fill="#34d399" />
    <circle cx="235" cy="252" r="6" fill="#34d399" />
  </g>
</svg>
